<svg width="284" height="108" viewBox="0 0 284 108" fill="none" xmlns="http://www.w3.org/2000/svg">
<rect x="171" y="9" width="56" height="55" rx="2" fill="white"/>
<path d="M43.2812 22.9609C42.3906 22.9609 41.625 22.6719 40.9844 22.0938C40.3594 21.5156 40.0469 20.7812 40.0469 19.8906C40.0469 19 40.3594 18.2578 40.9844 17.6641C41.625 17.0703 42.3906 16.7734 43.2812 16.7734C44.2031 16.7734 44.9844 17.0703 45.625 17.6641C46.2656 18.2578 46.5859 19 46.5859 19.8906C46.5859 20.7344 46.2656 21.4609 45.625 22.0703C44.9844 22.6641 44.2031 22.9609 43.2812 22.9609ZM45.9766 52H40.5391V28H45.9766V52ZM74.4766 52H69.0391V38.4766C69.0391 33.9922 67.4531 31.75 64.2812 31.75C62.625 31.75 61.2578 32.375 60.1797 33.625C59.1016 34.8594 58.5625 36.4219 58.5625 38.3125V52H53.1016V28H58.5625V31.9844H58.6562C60.4531 28.9531 63.0469 27.4375 66.4375 27.4375C69.0469 27.4375 71.0391 28.2891 72.4141 29.9922C73.7891 31.6797 74.4766 34.125 74.4766 37.3281V52ZM101.805 28L92.5234 52H86.6406L77.8047 28H83.7109L89.0312 44.7812C89.4375 46.0156 89.6875 47.0938 89.7812 48.0156H89.8516C89.9922 46.8594 90.2109 45.8125 90.5078 44.875L96.0859 28H101.805ZM125.453 41.4766H109.094C109.156 43.6953 109.836 45.4062 111.133 46.6094C112.445 47.8125 114.242 48.4141 116.523 48.4141C119.086 48.4141 121.438 47.6484 123.578 46.1172V50.5C121.391 51.875 118.5 52.5625 114.906 52.5625C111.375 52.5625 108.602 51.4766 106.586 49.3047C104.586 47.1172 103.586 44.0469 103.586 40.0938C103.586 36.3594 104.688 33.3203 106.891 30.9766C109.109 28.6172 111.859 27.4375 115.141 27.4375C118.422 27.4375 120.961 28.4922 122.758 30.6016C124.555 32.7109 125.453 35.6406 125.453 39.3906V41.4766ZM120.203 37.6328C120.188 35.6797 119.727 34.1641 118.82 33.0859C117.914 31.9922 116.664 31.4453 115.07 31.4453C113.508 31.4453 112.18 32.0156 111.086 33.1562C110.008 34.2969 109.344 35.7891 109.094 37.6328H120.203ZM129.133 51.25V46.2109C131.164 47.7578 133.406 48.5312 135.859 48.5312C139.141 48.5312 140.781 47.5625 140.781 45.625C140.781 45.0781 140.641 44.6172 140.359 44.2422C140.078 43.8516 139.695 43.5078 139.211 43.2109C138.742 42.9141 138.18 42.6484 137.523 42.4141C136.883 42.1797 136.164 41.9141 135.367 41.6172C134.383 41.2266 133.492 40.8125 132.695 40.375C131.914 39.9375 131.258 39.4453 130.727 38.8984C130.211 38.3359 129.82 37.7031 129.555 37C129.289 36.2969 129.156 35.4766 129.156 34.5391C129.156 33.3828 129.43 32.3672 129.977 31.4922C130.523 30.6016 131.258 29.8594 132.18 29.2656C133.102 28.6562 134.148 28.2031 135.32 27.9062C136.492 27.5938 137.703 27.4375 138.953 27.4375C141.172 27.4375 143.156 27.7734 144.906 28.4453V33.2031C143.219 32.0469 141.281 31.4688 139.094 31.4688C138.406 31.4688 137.781 31.5391 137.219 31.6797C136.672 31.8203 136.203 32.0156 135.812 32.2656C135.422 32.5156 135.117 32.8203 134.898 33.1797C134.68 33.5234 134.57 33.9062 134.57 34.3281C134.57 34.8438 134.68 35.2812 134.898 35.6406C135.117 36 135.438 36.3203 135.859 36.6016C136.297 36.8672 136.812 37.1172 137.406 37.3516C138.016 37.5703 138.711 37.8125 139.492 38.0781C140.523 38.5 141.445 38.9297 142.258 39.3672C143.086 39.8047 143.789 40.3047 144.367 40.8672C144.945 41.4141 145.391 42.0547 145.703 42.7891C146.016 43.5078 146.172 44.3672 146.172 45.3672C146.172 46.5859 145.891 47.6484 145.328 48.5547C144.766 49.4609 144.016 50.2109 143.078 50.8047C142.141 51.3984 141.055 51.8359 139.82 52.1172C138.602 52.4141 137.312 52.5625 135.953 52.5625C133.328 52.5625 131.055 52.125 129.133 51.25ZM164.008 51.7422C162.945 52.2734 161.547 52.5391 159.812 52.5391C155.156 52.5391 152.828 50.3047 152.828 45.8359V32.2656H148.82V28H152.828V22.4453L158.266 20.8984V28H164.008V32.2656H158.266V44.2656C158.266 45.6875 158.523 46.7031 159.039 47.3125C159.555 47.9219 160.414 48.2266 161.617 48.2266C162.539 48.2266 163.336 47.9609 164.008 47.4297V51.7422Z" fill="white"/>
<path d="M184.656 22.9609C183.766 22.9609 183 22.6719 182.359 22.0938C181.734 21.5156 181.422 20.7812 181.422 19.8906C181.422 19 181.734 18.2578 182.359 17.6641C183 17.0703 183.766 16.7734 184.656 16.7734C185.578 16.7734 186.359 17.0703 187 17.6641C187.641 18.2578 187.961 19 187.961 19.8906C187.961 20.7344 187.641 21.4609 187 22.0703C186.359 22.6641 185.578 22.9609 184.656 22.9609ZM187.352 52H181.914V28H187.352V52ZM215.852 52H210.414V38.4766C210.414 33.9922 208.828 31.75 205.656 31.75C204 31.75 202.633 32.375 201.555 33.625C200.477 34.8594 199.938 36.4219 199.938 38.3125V52H194.477V28H199.938V31.9844H200.031C201.828 28.9531 204.422 27.4375 207.812 27.4375C210.422 27.4375 212.414 28.2891 213.789 29.9922C215.164 31.6797 215.852 34.125 215.852 37.3281V52Z" fill="#8F61DB"/>
<path d="M10.6875 90.3965L6.76758 99.124C6.04102 100.712 5.33789 101.793 4.6582 102.367C3.98438 102.936 3.24609 103.22 2.44336 103.22C1.80469 103.22 1.27148 103.129 0.84375 102.947V100.952C1.35352 101.257 1.84277 101.409 2.31152 101.409C2.72754 101.409 3.1084 101.251 3.4541 100.935C3.80566 100.618 4.18359 100.062 4.58789 99.2646L0.37793 90.3965H2.75977L5.36133 96.373C5.41406 96.4961 5.5166 96.8008 5.66895 97.2871H5.68652C5.7041 97.2285 5.81543 96.9238 6.02051 96.373L8.47266 90.3965H10.6875ZM21.9375 103H19.9863V95.793C19.8691 96.1562 19.6904 96.6924 19.4502 97.4014L17.4199 103H15.6094L13.5439 97.3838C13.4326 97.0791 13.2539 96.543 13.0078 95.7754V103H11.3467V94H14.001L16.0664 99.5547C16.2129 99.959 16.4004 100.519 16.6289 101.233L17.1914 99.5898L19.2129 94H21.9375V103ZM32.6162 103H30.5684V99.0625H26.6484V103H24.6006V94H26.6484V97.5332H30.5684V94H32.6162V103ZM46.2305 103H44.1914V94H46.2305V103ZM35.2705 103V94H37.3096V97.3223H39.7705C40.7021 97.3223 41.4434 97.5684 41.9941 98.0605C42.5449 98.5469 42.8203 99.2266 42.8203 100.1C42.8203 100.996 42.5332 101.705 41.959 102.227C41.3906 102.742 40.6729 103 39.8057 103H35.2705ZM37.3096 98.79V101.532H39.1729C40.2041 101.532 40.7197 101.061 40.7197 100.117C40.7197 99.2324 40.1982 98.79 39.1553 98.79H37.3096ZM57.0674 103H55.2217V96.3994C55.1045 96.6338 54.9258 96.959 54.6855 97.375L50.8975 103H48.8936V94H50.7656V100.469C50.8301 100.316 50.9678 100.053 51.1787 99.6777L55.0195 94H57.0674V103ZM56.4785 89.667C56.3848 90.5459 56.0215 91.2402 55.3887 91.75C54.7617 92.2539 53.9736 92.5059 53.0244 92.5059C52.0518 92.5059 51.2578 92.2539 50.6426 91.75C50.0332 91.2402 49.6992 90.5459 49.6406 89.667H51.3369C51.4189 90.7334 51.9902 91.2666 53.0508 91.2666C53.5195 91.2666 53.9062 91.126 54.2109 90.8447C54.5215 90.5635 54.7119 90.1709 54.7822 89.667H56.4785ZM72.7119 103H70.6641V95.5557H66.7441V103H64.6963V94H72.7119V103ZM79.3564 103.211C77.9678 103.211 76.8574 102.792 76.0254 101.954C75.1992 101.11 74.7861 99.9941 74.7861 98.6055C74.7861 97.0938 75.2168 95.9131 76.0781 95.0635C76.9453 94.2139 78.1113 93.7891 79.5762 93.7891C80.9824 93.7891 82.0781 94.2021 82.8633 95.0283C83.6484 95.8545 84.041 97 84.041 98.4648C84.041 99.9004 83.6162 101.052 82.7666 101.919C81.9229 102.78 80.7861 103.211 79.3564 103.211ZM79.4531 95.415C78.6562 95.415 78.0264 95.6934 77.5635 96.25C77.1006 96.8066 76.8691 97.5742 76.8691 98.5527C76.8691 99.4961 77.1035 100.24 77.5723 100.785C78.041 101.324 78.668 101.594 79.4531 101.594C80.2559 101.594 80.8711 101.327 81.2988 100.794C81.7324 100.261 81.9492 99.502 81.9492 98.5176C81.9492 97.5273 81.7324 96.7627 81.2988 96.2236C80.8711 95.6846 80.2559 95.415 79.4531 95.415ZM96.7148 103H94.7637V95.793C94.6465 96.1562 94.4678 96.6924 94.2275 97.4014L92.1973 103H90.3867L88.3213 97.3838C88.21 97.0791 88.0312 96.543 87.7852 95.7754V103H86.124V94H88.7783L90.8438 99.5547C90.9902 99.959 91.1777 100.519 91.4062 101.233L91.9688 99.5898L93.9902 94H96.7148V103ZM103.368 103.211C101.979 103.211 100.869 102.792 100.037 101.954C99.2109 101.11 98.7979 99.9941 98.7979 98.6055C98.7979 97.0938 99.2285 95.9131 100.09 95.0635C100.957 94.2139 102.123 93.7891 103.588 93.7891C104.994 93.7891 106.09 94.2021 106.875 95.0283C107.66 95.8545 108.053 97 108.053 98.4648C108.053 99.9004 107.628 101.052 106.778 101.919C105.935 102.78 104.798 103.211 103.368 103.211ZM103.465 95.415C102.668 95.415 102.038 95.6934 101.575 96.25C101.112 96.8066 100.881 97.5742 100.881 98.5527C100.881 99.4961 101.115 100.24 101.584 100.785C102.053 101.324 102.68 101.594 103.465 101.594C104.268 101.594 104.883 101.327 105.311 100.794C105.744 100.261 105.961 99.502 105.961 98.5176C105.961 97.5273 105.744 96.7627 105.311 96.2236C104.883 95.6846 104.268 95.415 103.465 95.415ZM123.768 106.278H122.062V103H110.136V94H112.184V101.444H115.233V94H117.281V101.444H120.34V94H122.388V101.444H123.768V106.278ZM133.62 103H131.572V99.0625H127.652V103H125.604V94H127.652V97.5332H131.572V94H133.62V103ZM144.448 103H142.603V96.3994C142.485 96.6338 142.307 96.959 142.066 97.375L138.278 103H136.274V94H138.146V100.469C138.211 100.316 138.349 100.053 138.56 99.6777L142.4 94H144.448V103ZM155.294 103H152.701L149.203 98.6143H149.168V103H147.12V94H149.168V98.1396H149.203L152.508 94H155.004L151.26 98.2891L155.294 103ZM170.147 106.278H168.451V103H162.044V106.278H160.365V101.444H161.165C162.601 99.3232 163.33 96.8418 163.354 94H168.768V101.444H170.147V106.278ZM166.729 101.444V95.5469H165.015C164.874 97.7266 164.276 99.6924 163.222 101.444H166.729ZM179.578 103H177.53V95.5557H175.693C175.436 98.3389 174.993 100.296 174.366 101.427C173.745 102.552 172.907 103.114 171.853 103.114C171.501 103.114 171.199 103.064 170.947 102.965V101.444C171.152 101.544 171.372 101.594 171.606 101.594C172.866 101.594 173.675 99.0625 174.032 94H179.578V103ZM189.176 103H187.146V99.4404H186.1C185.596 99.4404 185.139 99.8916 184.729 100.794L183.656 103H181.345L182.769 100.328C183.173 99.6367 183.659 99.1797 184.228 98.957C183.513 98.8633 182.965 98.6084 182.584 98.1924C182.209 97.7705 182.021 97.2432 182.021 96.6104C182.021 95.8076 182.341 95.1719 182.979 94.7031C183.624 94.2344 184.488 94 185.572 94H189.176V103ZM187.146 98.0342V95.4766H185.739C184.638 95.4766 184.087 95.8955 184.087 96.7334C184.087 97.6006 184.629 98.0342 185.713 98.0342H187.146ZM204.952 103H203.106V96.3994C202.989 96.6338 202.811 96.959 202.57 97.375L198.782 103H196.778V94H198.65V100.469C198.715 100.316 198.853 100.053 199.063 99.6777L202.904 94H204.952V103ZM215.64 103H213.592V99.0625H209.672V103H207.624V94H209.672V97.5332H213.592V94H215.64V103ZM218.294 103V94H222.592C223.559 94 224.323 94.1963 224.886 94.5889C225.448 94.9814 225.729 95.5176 225.729 96.1973C225.729 97.3457 225.141 98.043 223.963 98.2891C225.363 98.4648 226.063 99.1562 226.063 100.363C226.063 101.107 225.768 101.734 225.176 102.244C224.584 102.748 223.849 103 222.97 103H218.294ZM220.333 95.4414V97.6826H222.135C223.154 97.6826 223.664 97.2871 223.664 96.4961C223.664 95.793 223.219 95.4414 222.328 95.4414H220.333ZM220.333 99.0977V101.55H222.425C223.468 101.55 223.989 101.128 223.989 100.284C223.989 99.4932 223.424 99.0977 222.293 99.0977H220.333ZM235.863 99.0537H229.729C229.752 99.8857 230.007 100.527 230.493 100.979C230.985 101.43 231.659 101.655 232.515 101.655C233.476 101.655 234.357 101.368 235.16 100.794V102.438C234.34 102.953 233.256 103.211 231.908 103.211C230.584 103.211 229.544 102.804 228.788 101.989C228.038 101.169 227.663 100.018 227.663 98.5352C227.663 97.1348 228.076 95.9951 228.902 95.1162C229.734 94.2314 230.766 93.7891 231.996 93.7891C233.227 93.7891 234.179 94.1846 234.853 94.9756C235.526 95.7666 235.863 96.8652 235.863 98.2715V99.0537ZM233.895 97.6123C233.889 96.8799 233.716 96.3115 233.376 95.9072C233.036 95.4971 232.567 95.292 231.97 95.292C231.384 95.292 230.886 95.5059 230.476 95.9336C230.071 96.3613 229.822 96.9209 229.729 97.6123H233.895ZM244.248 102.587C243.527 103.003 242.675 103.211 241.69 103.211C240.354 103.211 239.276 102.795 238.456 101.963C237.636 101.125 237.226 100.041 237.226 98.7109C237.226 97.2285 237.665 96.0391 238.544 95.1426C239.429 94.2402 240.609 93.7891 242.086 93.7891C242.906 93.7891 243.63 93.9326 244.257 94.2197V96.1182C243.63 95.6494 242.962 95.415 242.253 95.415C241.392 95.415 240.686 95.708 240.135 96.2939C239.584 96.874 239.309 97.6357 239.309 98.5791C239.309 99.5107 239.566 100.246 240.082 100.785C240.604 101.324 241.301 101.594 242.174 101.594C242.906 101.594 243.598 101.333 244.248 100.812V102.587ZM252.413 95.626H249.847V103H247.799V95.626H245.215V94H252.413V95.626ZM257.722 103.211C256.333 103.211 255.223 102.792 254.391 101.954C253.564 101.11 253.151 99.9941 253.151 98.6055C253.151 97.0938 253.582 95.9131 254.443 95.0635C255.311 94.2139 256.477 93.7891 257.941 93.7891C259.348 93.7891 260.443 94.2021 261.229 95.0283C262.014 95.8545 262.406 97 262.406 98.4648C262.406 99.9004 261.981 101.052 261.132 101.919C260.288 102.78 259.151 103.211 257.722 103.211ZM257.818 95.415C257.021 95.415 256.392 95.6934 255.929 96.25C255.466 96.8066 255.234 97.5742 255.234 98.5527C255.234 99.4961 255.469 100.24 255.938 100.785C256.406 101.324 257.033 101.594 257.818 101.594C258.621 101.594 259.236 101.327 259.664 100.794C260.098 100.261 260.314 99.502 260.314 98.5176C260.314 97.5273 260.098 96.7627 259.664 96.2236C259.236 95.6846 258.621 95.415 257.818 95.415ZM266.563 101.673H266.528V107.14H264.489V94H266.528V95.582H266.563C267.261 94.3867 268.28 93.7891 269.622 93.7891C270.765 93.7891 271.655 94.1904 272.294 94.9932C272.933 95.7959 273.252 96.874 273.252 98.2275C273.252 99.7275 272.892 100.929 272.171 101.831C271.45 102.733 270.466 103.185 269.218 103.185C268.069 103.185 267.185 102.681 266.563 101.673ZM266.511 98.1221V99.2383C266.511 99.8945 266.719 100.451 267.135 100.908C267.557 101.365 268.09 101.594 268.734 101.594C269.49 101.594 270.082 101.301 270.51 100.715C270.943 100.123 271.16 99.2998 271.16 98.2451C271.16 97.3604 270.958 96.6689 270.554 96.1709C270.155 95.667 269.613 95.415 268.928 95.415C268.201 95.415 267.615 95.6729 267.17 96.1885C266.73 96.7041 266.511 97.3486 266.511 98.1221ZM282.032 103H280.055V101.594H280.02C279.398 102.672 278.487 103.211 277.286 103.211C276.401 103.211 275.707 102.971 275.203 102.49C274.705 102.01 274.456 101.374 274.456 100.583C274.456 98.8838 275.435 97.8936 277.392 97.6123L280.063 97.2344C280.063 95.9512 279.454 95.3096 278.235 95.3096C277.163 95.3096 276.196 95.6787 275.335 96.417V94.6328C276.284 94.0703 277.38 93.7891 278.622 93.7891C280.896 93.7891 282.032 94.9082 282.032 97.1465V103ZM280.063 98.5791L278.174 98.8428C277.588 98.9189 277.146 99.0625 276.847 99.2734C276.554 99.4785 276.407 99.8418 276.407 100.363C276.407 100.744 276.542 101.058 276.812 101.304C277.087 101.544 277.453 101.664 277.91 101.664C278.531 101.664 279.044 101.447 279.448 101.014C279.858 100.574 280.063 100.023 280.063 99.3613V98.5791Z" fill="white"/>
</svg>
